<svg width="224" height="224" viewBox="0 0 224 224" fill="none" xmlns="http://www.w3.org/2000/svg">
<g opacity="0.1">
<path d="M175.406 54.0312H49.5937C40.1186 54.0312 32.4374 61.7124 32.4374 71.1875V156.969C32.4374 166.444 40.1186 174.125 49.5937 174.125H175.406C184.882 174.125 192.562 166.444 192.562 156.969V71.1875C192.562 61.7124 184.882 54.0312 175.406 54.0312Z" fill="#9FA8DA"/>
<path d="M192.562 71.1875V82.625H38.1562H32.4374V71.1875C32.4374 66.6374 34.245 62.2736 37.4624 59.0562C40.6798 55.8388 45.0436 54.0312 49.5937 54.0312H175.406C179.956 54.0312 184.32 55.8388 187.537 59.0562C190.755 62.2736 192.562 66.6374 192.562 71.1875Z" fill="#5D62EF"/>
<path d="M83.9062 65.4688C82.3896 65.4688 80.9347 64.8662 79.8625 63.7938C78.7902 62.7213 78.1874 61.2667 78.1874 59.75V48.3125H66.7499V59.75C66.7499 61.2667 66.1474 62.7213 65.075 63.7938C64.0025 64.8662 62.5479 65.4688 61.0312 65.4688C59.5145 65.4688 58.0599 64.8662 56.9874 63.7938C55.915 62.7213 55.3124 61.2667 55.3124 59.75V42.5938C55.3124 41.077 55.915 39.6225 56.9874 38.55C58.0599 37.4775 59.5145 36.875 61.0312 36.875H83.9062C85.4228 36.875 86.8776 37.4775 87.9499 38.55C89.0222 39.6225 89.6249 41.077 89.6249 42.5938V59.75C89.6249 61.2667 89.0222 62.7213 87.9499 63.7938C86.8776 64.8662 85.4228 65.4688 83.9062 65.4688Z" fill="#283593"/>
<path d="M163.969 65.4688C162.452 65.4688 160.997 64.8662 159.925 63.7938C158.853 62.7213 158.25 61.2667 158.25 59.75V48.3125H146.812V59.75C146.812 61.2667 146.21 62.7213 145.137 63.7938C144.065 64.8662 142.61 65.4688 141.094 65.4688C139.577 65.4688 138.122 64.8662 137.05 63.7938C135.978 62.7213 135.375 61.2667 135.375 59.75V42.5938C135.375 41.077 135.978 39.6225 137.05 38.55C138.122 37.4775 139.577 36.875 141.094 36.875H163.969C165.485 36.875 166.94 37.4775 168.012 38.55C169.085 39.6225 169.688 41.077 169.688 42.5938V59.75C169.688 61.2667 169.085 62.7213 168.012 63.7938C166.94 64.8662 165.485 65.4688 163.969 65.4688Z" fill="#5D62EF"/>
<path d="M72.4687 134.094H66.7499C63.5916 134.094 61.0312 136.654 61.0312 139.812V145.531C61.0312 148.69 63.5916 151.25 66.7499 151.25H72.4687C75.627 151.25 78.1874 148.69 78.1874 145.531V139.812C78.1874 136.654 75.627 134.094 72.4687 134.094Z" fill="#0D47A1"/>
<path d="M101.062 105.5H95.3438C92.1853 105.5 89.625 108.06 89.625 111.219V116.938C89.625 120.096 92.1853 122.656 95.3438 122.656H101.062C104.221 122.656 106.781 120.096 106.781 116.938V111.219C106.781 108.06 104.221 105.5 101.062 105.5Z" fill="#0D47A1"/>
<path d="M101.062 134.094H95.3438C92.1853 134.094 89.625 136.654 89.625 139.812V145.531C89.625 148.69 92.1853 151.25 95.3438 151.25H101.062C104.221 151.25 106.781 148.69 106.781 145.531V139.812C106.781 136.654 104.221 134.094 101.062 134.094Z" fill="#0D47A1"/>
<path d="M129.656 105.5H123.938C120.779 105.5 118.219 108.06 118.219 111.219V116.938C118.219 120.096 120.779 122.656 123.938 122.656H129.656C132.815 122.656 135.375 120.096 135.375 116.938V111.219C135.375 108.06 132.815 105.5 129.656 105.5Z" fill="#5D62EF"/>
<path d="M129.656 134.094H123.938C120.779 134.094 118.219 136.654 118.219 139.812V145.531C118.219 148.69 120.779 151.25 123.938 151.25H129.656C132.815 151.25 135.375 148.69 135.375 145.531V139.812C135.375 136.654 132.815 134.094 129.656 134.094Z" fill="#5D62EF"/>
<path d="M158.25 105.5H152.531C149.373 105.5 146.812 108.06 146.812 111.219V116.938C146.812 120.096 149.373 122.656 152.531 122.656H158.25C161.408 122.656 163.969 120.096 163.969 116.938V111.219C163.969 108.06 161.408 105.5 158.25 105.5Z" fill="#2A32EE"/>
<path d="M158.25 134.094H152.531C149.373 134.094 146.812 136.654 146.812 139.812V145.531C146.812 148.69 149.373 151.25 152.531 151.25H158.25C161.408 151.25 163.969 148.69 163.969 145.531V139.812C163.969 136.654 161.408 134.094 158.25 134.094Z" fill="#5D62EF"/>
<path d="M49.5937 54.0312C45.0436 54.0312 40.6798 55.8388 37.4624 59.0562C34.245 62.2736 32.4374 66.6374 32.4374 71.1875V156.969C32.4374 161.519 34.245 165.883 37.4624 169.1C40.6798 172.317 45.0436 174.125 49.5937 174.125H112.5V54.0312H49.5937Z" fill="#C5CAE9"/>
<path d="M49.5937 54.0312C45.0436 54.0312 40.6798 55.8388 37.4624 59.0562C34.245 62.2736 32.4374 66.6374 32.4374 71.1875V82.625H38.1562H112.5V54.0312H49.5937Z" fill="#2A32EE"/>
<path d="M83.9062 65.4688C82.3896 65.4688 80.9347 64.8662 79.8625 63.7938C78.7902 62.7213 78.1874 61.2667 78.1874 59.75V48.3125H66.7499V59.75C66.7499 61.2667 66.1474 62.7213 65.075 63.7938C64.0025 64.8662 62.5479 65.4688 61.0312 65.4688C59.5145 65.4688 58.0599 64.8662 56.9874 63.7938C55.915 62.7213 55.3124 61.2667 55.3124 59.75V42.5938C55.3124 41.077 55.915 39.6225 56.9874 38.55C58.0599 37.4775 59.5145 36.875 61.0312 36.875H83.9062C85.4228 36.875 86.8776 37.4775 87.9499 38.55C89.0222 39.6225 89.6249 41.077 89.6249 42.5938V59.75C89.6249 61.2667 89.0222 62.7213 87.9499 63.7938C86.8776 64.8662 85.4228 65.4688 83.9062 65.4688Z" fill="#5D62EF"/>
<path d="M72.4687 134.094H66.7499C63.5916 134.094 61.0312 136.654 61.0312 139.812V145.531C61.0312 148.69 63.5916 151.25 66.7499 151.25H72.4687C75.627 151.25 78.1874 148.69 78.1874 145.531V139.812C78.1874 136.654 75.627 134.094 72.4687 134.094Z" fill="#5D62EF"/>
<path d="M101.062 105.5H95.3438C92.1853 105.5 89.625 108.06 89.625 111.219V116.938C89.625 120.096 92.1853 122.656 95.3438 122.656H101.062C104.221 122.656 106.781 120.096 106.781 116.938V111.219C106.781 108.06 104.221 105.5 101.062 105.5Z" fill="#2A32EE"/>
<path d="M101.062 134.094H95.3438C92.1853 134.094 89.625 136.654 89.625 139.812V145.531C89.625 148.69 92.1853 151.25 95.3438 151.25H101.062C104.221 151.25 106.781 148.69 106.781 145.531V139.812C106.781 136.654 104.221 134.094 101.062 134.094Z" fill="#2A32EE"/>
</g>
</svg>
