<svg width="36" height="36" viewBox="0 0 36 36" fill="none" xmlns="http://www.w3.org/2000/svg">
<rect x="0.5" y="0.5" width="35" height="35" rx="17.5" stroke="#EAECF0"/>
<path d="M18 9.875C16.393 9.875 14.8221 10.3515 13.486 11.2443C12.1498 12.1371 11.1084 13.406 10.4935 14.8907C9.87852 16.3753 9.71762 18.009 10.0311 19.5851C10.3446 21.1612 11.1185 22.6089 12.2548 23.7452C13.3911 24.8815 14.8388 25.6554 16.4149 25.9689C17.991 26.2824 19.6247 26.1215 21.1093 25.5065C22.594 24.8916 23.8629 23.8502 24.7557 22.514C25.6485 21.1779 26.125 19.607 26.125 18C26.1227 15.8458 25.266 13.7805 23.7427 12.2573C22.2195 10.734 20.1542 9.87727 18 9.875ZM18.625 24.8461V19.875H20.5C20.6658 19.875 20.8247 19.8092 20.9419 19.6919C21.0592 19.5747 21.125 19.4158 21.125 19.25C21.125 19.0842 21.0592 18.9253 20.9419 18.8081C20.8247 18.6908 20.6658 18.625 20.5 18.625H18.625V16.75C18.625 16.4185 18.7567 16.1005 18.9911 15.8661C19.2255 15.6317 19.5435 15.5 19.875 15.5H21.125C21.2908 15.5 21.4497 15.4342 21.5669 15.3169C21.6842 15.1997 21.75 15.0408 21.75 14.875C21.75 14.7092 21.6842 14.5503 21.5669 14.4331C21.4497 14.3158 21.2908 14.25 21.125 14.25H19.875C19.212 14.25 18.5761 14.5134 18.1072 14.9822C17.6384 15.4511 17.375 16.087 17.375 16.75V18.625H15.5C15.3342 18.625 15.1753 18.6908 15.0581 18.8081C14.9409 18.9253 14.875 19.0842 14.875 19.25C14.875 19.4158 14.9409 19.5747 15.0581 19.6919C15.1753 19.8092 15.3342 19.875 15.5 19.875H17.375V24.8461C15.6131 24.6853 13.9811 23.8514 12.8183 22.5179C11.6556 21.1845 11.0516 19.4541 11.1321 17.6867C11.2126 15.9194 11.9714 14.2511 13.2505 13.0288C14.5297 11.8066 16.2308 11.1246 18 11.1246C19.7692 11.1246 21.4703 11.8066 22.7495 13.0288C24.0286 14.2511 24.7874 15.9194 24.8679 17.6867C24.9484 19.4541 24.3444 21.1845 23.1817 22.5179C22.0189 23.8514 20.3869 24.6853 18.625 24.8461Z" fill="#5F6A78"/>
</svg>
