<svg width="224" height="230" viewBox="0 0 224 230" fill="none" xmlns="http://www.w3.org/2000/svg">
<g opacity="0.1">
<g clip-path="url(#clip0_539_3)">
<path d="M182.864 99.0227C180.254 99.0227 177.717 99.293 175.25 99.7594L160.791 55.6415C158.262 47.9222 151.053 42.7015 142.932 42.7015H123.023V53.3827H142.932C146.448 53.3792 149.558 55.638 150.647 58.9687L153.285 67.0331H126.735C113.136 67.0331 102.925 73.8327 102.925 73.8327V93.6769H162.015L165.106 103.101C151.29 109.734 141.735 123.814 141.728 140.159C141.735 162.881 160.142 181.291 182.864 181.298C205.579 181.291 223.994 162.881 224 140.159C223.993 117.44 205.579 99.0292 182.864 99.0227ZM201.887 159.182C196.998 164.057 190.31 167.06 182.864 167.06C175.412 167.06 168.738 164.057 163.848 159.182C158.973 154.292 155.97 147.611 155.97 140.159C155.97 132.71 158.972 126.032 163.848 121.143C165.546 119.445 167.527 118.076 169.616 116.875L174.479 131.719C172.308 133.876 170.963 136.859 170.963 140.158C170.963 146.735 176.291 152.067 182.864 152.067C189.437 152.067 194.766 146.735 194.766 140.158C194.766 134.194 190.364 129.304 184.642 128.439L179.774 113.575C180.802 113.454 181.803 113.264 182.864 113.264C190.31 113.264 196.998 116.263 201.887 121.143C206.762 126.032 209.752 132.71 209.765 140.159C209.751 147.611 206.762 154.292 201.887 159.182Z" fill="#5D62EF"/>
<path d="M41.1294 99.0228C18.4074 99.0293 0.007 117.44 0 140.159C0.007 162.881 18.4074 181.292 41.1294 181.298C63.8514 181.292 82.2588 162.881 82.2658 140.159C82.2588 117.44 63.8514 99.0293 41.1294 99.0228ZM60.1523 159.182C55.2628 164.057 48.5818 167.06 41.1294 167.06C33.677 167.06 27.0025 164.058 22.113 159.182C17.2305 154.292 14.2345 147.611 14.2345 140.159C14.2345 132.71 17.2305 126.032 22.113 121.143C27.0025 116.263 33.677 113.264 41.1294 113.264C48.5818 113.264 55.2633 116.263 60.1523 121.143C65.0278 126.032 68.0238 132.71 68.0308 140.159C68.0238 147.611 65.0283 154.292 60.1523 159.182Z" fill="#5D62EF"/>
<path d="M41.1294 128.26C34.5564 128.26 29.2277 133.585 29.2277 140.158C29.2277 146.735 34.5564 152.067 41.1294 152.067C47.7029 152.067 53.0382 146.735 53.0382 140.158C53.0382 133.585 47.7029 128.26 41.1294 128.26Z" fill="#5D62EF"/>
<path d="M192.095 90.8025V61.9909C179.909 61.9909 172.152 70.3021 172.152 70.3021V82.4882C172.152 82.4882 179.909 90.8025 192.095 90.8025Z" fill="#5D62EF"/>
<path d="M203.172 61.9848H197.255V90.7929H203.172V61.9848Z" fill="#5D62EF"/>
<path d="M30.8437 93.6765H96.3243V74.9681H76.4093C71.0666 74.9681 65.7584 74.1228 60.6795 72.456L53.5653 70.1197C48.4938 68.4528 43.1782 67.6006 37.8358 67.6006H30.8437C27.1381 67.6006 24.129 70.6132 24.129 74.3258V86.9512C24.1285 90.6638 27.1377 93.6765 30.8437 93.6765Z" fill="#5D62EF"/>
<path d="M150.195 101.548V100.957H73.0755C84.4632 110.214 91.7603 124.334 91.7603 140.172C91.7603 141.592 92.2468 144.443 96.3247 144.443H126.918C130.807 144.443 132.22 141.592 132.22 140.172C132.22 124.686 139.212 110.806 150.195 101.548Z" fill="#5D62EF"/>
</g>
</g>
<defs>
<clipPath id="clip0_539_3">
<rect width="224" height="224" fill="white"/>
</clipPath>
</defs>
</svg>
