<svg width="20" height="20" viewBox="0 0 20 20" fill="none" xmlns="http://www.w3.org/2000/svg">
<path d="M14.6547 11.3156L12.1547 10.0656C12.0563 10.0166 11.9467 9.99438 11.8369 10.0012C11.7272 10.0081 11.6212 10.0438 11.5297 10.1047L10.382 10.8703C9.8552 10.5807 9.42165 10.1471 9.13203 9.62031L9.89766 8.47266C9.95857 8.38112 9.99425 8.27514 10.0011 8.1654C10.008 8.05567 9.98576 7.94606 9.93672 7.84766L8.68672 5.34766C8.63491 5.24302 8.55483 5.155 8.45555 5.09355C8.35627 5.0321 8.24176 4.9997 8.125 5C7.2962 5 6.50135 5.32924 5.91529 5.91529C5.32924 6.50134 5 7.2962 5 8.125C5.00207 9.94773 5.72706 11.6952 7.01593 12.9841C8.30479 14.2729 10.0523 14.9979 11.875 15C12.2854 15 12.6917 14.9192 13.0709 14.7621C13.45 14.6051 13.7945 14.3749 14.0847 14.0847C14.3749 13.7945 14.6051 13.45 14.7621 13.0709C14.9192 12.6917 15 12.2854 15 11.875C15.0001 11.7589 14.9678 11.645 14.9068 11.5462C14.8458 11.4474 14.7585 11.3676 14.6547 11.3156ZM11.875 13.75C10.3837 13.7483 8.95389 13.1552 7.89935 12.1006C6.84482 11.0461 6.25166 9.61633 6.25 8.125C6.24988 7.6915 6.39997 7.27135 6.67474 6.93605C6.9495 6.60075 7.33196 6.37101 7.75703 6.28594L8.65391 8.08281L7.89063 9.21875C7.83359 9.30431 7.79854 9.40262 7.7886 9.50496C7.77865 9.60731 7.7941 9.71053 7.8336 9.80547C8.28077 10.8683 9.12627 11.7138 10.1891 12.1609C10.2843 12.2022 10.3883 12.2191 10.4917 12.2101C10.5951 12.2011 10.6946 12.1665 10.7813 12.1094L11.9227 11.3484L13.7195 12.2453C13.6338 12.6709 13.4031 13.0535 13.0667 13.3279C12.7303 13.6023 12.3091 13.7515 11.875 13.75ZM10 1.875C8.59724 1.87469 7.2183 2.23757 5.99739 2.9283C4.77648 3.61904 3.7552 4.6141 3.03295 5.81664C2.3107 7.01918 1.9121 8.38822 1.87593 9.79052C1.83976 11.1928 2.16727 12.5806 2.82657 13.8188L1.93985 16.4789C1.8664 16.6992 1.85574 16.9355 1.90906 17.1615C1.96239 17.3874 2.07759 17.5941 2.24176 17.7582C2.40593 17.9224 2.61258 18.0376 2.83854 18.0909C3.0645 18.1443 3.30085 18.1336 3.5211 18.0602L6.18125 17.1734C7.27092 17.753 8.47829 18.0767 9.71174 18.12C10.9452 18.1633 12.1723 17.925 13.2999 17.4232C14.4275 16.9215 15.426 16.1694 16.2195 15.2241C17.0131 14.2789 17.5809 13.1652 17.8798 11.9678C18.1787 10.7703 18.2009 9.52047 17.9446 8.31315C17.6884 7.10584 17.1605 5.97276 16.401 4.99993C15.6414 4.02711 14.6703 3.24009 13.5612 2.69864C12.4521 2.15718 11.2342 1.87551 10 1.875ZM10 16.875C8.79139 16.8758 7.60399 16.5575 6.55782 15.9523C6.48122 15.9079 6.39606 15.8803 6.30797 15.8713C6.21989 15.8622 6.13089 15.872 6.04688 15.9L3.125 16.875L4.09922 13.9531C4.1273 13.8692 4.13723 13.7802 4.12834 13.6921C4.11945 13.604 4.09195 13.5188 4.04766 13.4422C3.28982 12.132 2.98556 10.6083 3.18206 9.10747C3.37856 7.60667 4.06484 6.21267 5.13445 5.14171C6.20405 4.07076 7.59719 3.38271 9.09773 3.18431C10.5983 2.98592 12.1224 3.28826 13.4335 4.04444C14.7447 4.80062 15.7697 5.96837 16.3495 7.36652C16.9293 8.76468 17.0315 10.3151 16.6402 11.7773C16.2489 13.2394 15.386 14.5316 14.1854 15.4533C12.9848 16.375 11.5136 16.8748 10 16.875Z" fill="#5F6A78"/>
</svg>
